<svg id="visual" viewBox="0 0 900 600" width="900" height="600" xmlns="http://www.w3.org/2000/svg" xmlns:xlink="http://www.w3.org/1999/xlink" version="1.1"><g stroke-width="1" stroke-linejoin="bevel"><path d="M429 288L496 266L429 168Z" fill="#3375a8" stroke="#3375a8"></path><path d="M496 266L538 212L429 168Z" fill="#061b2e" stroke="#061b2e"></path><path d="M538 212L489 130L429 168Z" fill="#295f8b" stroke="#295f8b"></path><path d="M429 168L328 238L429 288Z" fill="#001122" stroke="#001122"></path><path d="M496 266L582 260L538 212Z" fill="#001122" stroke="#001122"></path><path d="M538 212L619 200L489 130Z" fill="#3375a8" stroke="#3375a8"></path><path d="M634 366L582 260L496 266Z" fill="#0f2d47" stroke="#0f2d47"></path><path d="M489 130L377 90L429 168Z" fill="#1f4a6f" stroke="#1f4a6f"></path><path d="M429 168L377 90L328 238Z" fill="#295f8b" stroke="#295f8b"></path><path d="M582 260L619 200L538 212Z" fill="#1a4061" stroke="#1a4061"></path><path d="M220 181L288 312L328 238Z" fill="#24547d" stroke="#24547d"></path><path d="M328 238L288 312L429 288Z" fill="#3375a8" stroke="#3375a8"></path><path d="M288 312L373 404L429 288Z" fill="#1f4a6f" stroke="#1f4a6f"></path><path d="M429 288L480 433L496 266Z" fill="#2e6a99" stroke="#2e6a99"></path><path d="M373 404L480 433L429 288Z" fill="#001122" stroke="#001122"></path><path d="M582 260L699 232L619 200Z" fill="#3375a8" stroke="#3375a8"></path><path d="M377 90L301 76L328 238Z" fill="#24547d" stroke="#24547d"></path><path d="M619 200L602 60L489 130Z" fill="#2e6a99" stroke="#2e6a99"></path><path d="M489 130L405 0L377 90Z" fill="#1f4a6f" stroke="#1f4a6f"></path><path d="M377 90L405 0L301 76Z" fill="#1a4061" stroke="#1a4061"></path><path d="M301 76L237 130L328 238Z" fill="#3375a8" stroke="#3375a8"></path><path d="M237 130L220 181L328 238Z" fill="#3375a8" stroke="#3375a8"></path><path d="M536 0L405 0L489 130Z" fill="#295f8b" stroke="#295f8b"></path><path d="M480 433L634 366L496 266Z" fill="#295f8b" stroke="#295f8b"></path><path d="M602 60L536 0L489 130Z" fill="#0f2d47" stroke="#0f2d47"></path><path d="M695 336L699 232L582 260Z" fill="#1f4a6f" stroke="#1f4a6f"></path><path d="M619 200L731 94L602 60Z" fill="#153654" stroke="#153654"></path><path d="M220 181L187 295L288 312Z" fill="#295f8b" stroke="#295f8b"></path><path d="M288 312L273 434L373 404Z" fill="#2e6a99" stroke="#2e6a99"></path><path d="M176 370L273 434L288 312Z" fill="#153654" stroke="#153654"></path><path d="M431 500L499 493L480 433Z" fill="#153654" stroke="#153654"></path><path d="M431 500L480 433L373 404Z" fill="#0a233a" stroke="#0a233a"></path><path d="M480 433L499 493L634 366Z" fill="#153654" stroke="#153654"></path><path d="M676 391L695 336L634 366Z" fill="#061b2e" stroke="#061b2e"></path><path d="M634 366L695 336L582 260Z" fill="#153654" stroke="#153654"></path><path d="M270 509L431 500L373 404Z" fill="#1f4a6f" stroke="#1f4a6f"></path><path d="M405 0L289 0L301 76Z" fill="#061b2e" stroke="#061b2e"></path><path d="M301 76L165 0L237 130Z" fill="#0a233a" stroke="#0a233a"></path><path d="M629 529L676 391L634 366Z" fill="#2e6a99" stroke="#2e6a99"></path><path d="M731 94L630 0L602 60Z" fill="#0a233a" stroke="#0a233a"></path><path d="M602 60L630 0L536 0Z" fill="#153654" stroke="#153654"></path><path d="M187 295L176 370L288 312Z" fill="#1f4a6f" stroke="#1f4a6f"></path><path d="M237 130L136 195L220 181Z" fill="#0f2d47" stroke="#0f2d47"></path><path d="M220 181L136 195L187 295Z" fill="#3375a8" stroke="#3375a8"></path><path d="M187 295L94 389L176 370Z" fill="#001122" stroke="#001122"></path><path d="M86 111L136 195L237 130Z" fill="#24547d" stroke="#24547d"></path><path d="M699 232L731 94L619 200Z" fill="#0f2d47" stroke="#0f2d47"></path><path d="M838 192L731 94L699 232Z" fill="#2e6a99" stroke="#2e6a99"></path><path d="M785 368L761 272L695 336Z" fill="#2e6a99" stroke="#2e6a99"></path><path d="M695 336L761 272L699 232Z" fill="#2e6a99" stroke="#2e6a99"></path><path d="M210 527L270 509L273 434Z" fill="#001122" stroke="#001122"></path><path d="M273 434L270 509L373 404Z" fill="#0a233a" stroke="#0a233a"></path><path d="M499 493L629 529L634 366Z" fill="#2e6a99" stroke="#2e6a99"></path><path d="M676 391L785 368L695 336Z" fill="#24547d" stroke="#24547d"></path><path d="M591 600L629 529L499 493Z" fill="#1f4a6f" stroke="#1f4a6f"></path><path d="M471 600L499 493L431 500Z" fill="#1a4061" stroke="#1a4061"></path><path d="M731 94L715 0L630 0Z" fill="#1a4061" stroke="#1a4061"></path><path d="M289 0L165 0L301 76Z" fill="#001122" stroke="#001122"></path><path d="M136 195L84 262L187 295Z" fill="#001122" stroke="#001122"></path><path d="M176 370L210 527L273 434Z" fill="#295f8b" stroke="#295f8b"></path><path d="M0 187L84 262L136 195Z" fill="#153654" stroke="#153654"></path><path d="M765 480L785 368L676 391Z" fill="#24547d" stroke="#24547d"></path><path d="M761 272L838 192L699 232Z" fill="#3375a8" stroke="#3375a8"></path><path d="M731 94L823 0L715 0Z" fill="#1f4a6f" stroke="#1f4a6f"></path><path d="M409 600L471 600L431 500Z" fill="#1a4061" stroke="#1a4061"></path><path d="M270 509L409 600L431 500Z" fill="#153654" stroke="#153654"></path><path d="M165 0L86 111L237 130Z" fill="#0a233a" stroke="#0a233a"></path><path d="M91 521L210 527L176 370Z" fill="#2e6a99" stroke="#2e6a99"></path><path d="M270 509L294 600L409 600Z" fill="#295f8b" stroke="#295f8b"></path><path d="M84 262L94 389L187 295Z" fill="#1f4a6f" stroke="#1f4a6f"></path><path d="M900 232L838 192L900 271Z" fill="#001122" stroke="#001122"></path><path d="M471 600L591 600L499 493Z" fill="#153654" stroke="#153654"></path><path d="M629 529L765 480L676 391Z" fill="#001122" stroke="#001122"></path><path d="M210 527L294 600L270 509Z" fill="#153654" stroke="#153654"></path><path d="M736 537L765 480L629 529Z" fill="#24547d" stroke="#24547d"></path><path d="M900 271L838 192L761 272Z" fill="#295f8b" stroke="#295f8b"></path><path d="M838 192L838 87L731 94Z" fill="#24547d" stroke="#24547d"></path><path d="M712 600L736 537L629 529Z" fill="#295f8b" stroke="#295f8b"></path><path d="M838 87L823 0L731 94Z" fill="#0a233a" stroke="#0a233a"></path><path d="M165 0L63 0L86 111Z" fill="#2e6a99" stroke="#2e6a99"></path><path d="M0 187L0 263L84 262Z" fill="#001122" stroke="#001122"></path><path d="M84 262L0 382L94 389Z" fill="#24547d" stroke="#24547d"></path><path d="M0 187L136 195L86 111Z" fill="#153654" stroke="#153654"></path><path d="M0 135L0 187L86 111Z" fill="#061b2e" stroke="#061b2e"></path><path d="M91 521L193 600L210 527Z" fill="#001122" stroke="#001122"></path><path d="M210 527L193 600L294 600Z" fill="#2e6a99" stroke="#2e6a99"></path><path d="M91 521L176 370L94 389Z" fill="#24547d" stroke="#24547d"></path><path d="M900 271L761 272L785 368Z" fill="#153654" stroke="#153654"></path><path d="M838 192L900 117L838 87Z" fill="#0a233a" stroke="#0a233a"></path><path d="M838 87L900 0L823 0Z" fill="#0a233a" stroke="#0a233a"></path><path d="M900 271L785 368L900 428Z" fill="#061b2e" stroke="#061b2e"></path><path d="M900 428L785 368L765 480Z" fill="#153654" stroke="#153654"></path><path d="M0 0L0 135L86 111Z" fill="#001122" stroke="#001122"></path><path d="M591 600L712 600L629 529Z" fill="#2e6a99" stroke="#2e6a99"></path><path d="M900 517L900 428L765 480Z" fill="#295f8b" stroke="#295f8b"></path><path d="M0 486L91 521L94 389Z" fill="#2e6a99" stroke="#2e6a99"></path><path d="M900 232L900 117L838 192Z" fill="#295f8b" stroke="#295f8b"></path><path d="M0 263L0 382L84 262Z" fill="#0a233a" stroke="#0a233a"></path><path d="M811 600L765 480L736 537Z" fill="#0f2d47" stroke="#0f2d47"></path><path d="M63 0L0 0L86 111Z" fill="#153654" stroke="#153654"></path><path d="M900 117L900 0L838 87Z" fill="#295f8b" stroke="#295f8b"></path><path d="M0 382L0 486L94 389Z" fill="#2e6a99" stroke="#2e6a99"></path><path d="M91 521L83 600L193 600Z" fill="#24547d" stroke="#24547d"></path><path d="M0 600L83 600L91 521Z" fill="#0a233a" stroke="#0a233a"></path><path d="M712 600L811 600L736 537Z" fill="#1f4a6f" stroke="#1f4a6f"></path><path d="M811 600L900 517L765 480Z" fill="#0f2d47" stroke="#0f2d47"></path><path d="M0 486L0 600L91 521Z" fill="#001122" stroke="#001122"></path><path d="M811 600L900 600L900 517Z" fill="#0a233a" stroke="#0a233a"></path></g></svg>